<?xml version="1.0" encoding="UTF-8" standalone="no"?>
<svg
   xmlns:dc="http://purl.org/dc/elements/1.1/"
   xmlns:cc="http://creativecommons.org/ns#"
   xmlns:rdf="http://www.w3.org/1999/02/22-rdf-syntax-ns#"
   xmlns:svg="http://www.w3.org/2000/svg"
   xmlns="http://www.w3.org/2000/svg"
   xmlns:sodipodi="http://sodipodi.sourceforge.net/DTD/sodipodi-0.dtd"
   xmlns:inkscape="http://www.inkscape.org/namespaces/inkscape"
   viewBox="0 0 16 16"
   version="1.1"
   id="svg7"
   sodipodi:docname="Setter_public_dark.svg"
   inkscape:version="0.92.3 (2405546, 2018-03-11)">
  <metadata
     id="metadata13">
    <rdf:RDF>
      <cc:Work
         rdf:about="">
        <dc:format>image/svg+xml</dc:format>
        <dc:type
           rdf:resource="http://purl.org/dc/dcmitype/StillImage" />
        <dc:title></dc:title>
      </cc:Work>
    </rdf:RDF>
  </metadata>
  <defs
     id="defs11" />
  <sodipodi:namedview
     pagecolor="#ffffff"
     bordercolor="#666666"
     borderopacity="1"
     objecttolerance="10"
     gridtolerance="10"
     guidetolerance="10"
     inkscape:pageopacity="0"
     inkscape:pageshadow="2"
     inkscape:window-width="1920"
     inkscape:window-height="1017"
     id="namedview9"
     showgrid="false"
     inkscape:zoom="14.75"
     inkscape:cx="24.254237"
     inkscape:cy="8"
     inkscape:window-x="-8"
     inkscape:window-y="-8"
     inkscape:window-maximized="1"
     inkscape:current-layer="svg7" />
  <style
     id="style2">.icon-canvas-transparent{opacity:0;fill:#2d2d30}.icon-vs-out{fill:#2d2d30}.icon-vs-bg{fill:#c5c5c5}</style>
  <path
     class="icon-canvas-transparent"
     d="M16 16H0V0h16v16z"
     id="canvas" />
  <path
     class="icon-vs-out"
     d="M16 5.5a5.5 5.5 0 0 1-5.5 5.5c-.275 0-.543-.027-.807-.066l-.079-.012a5.429 5.429 0 0 1-.81-.192l-4.537 4.537c-.472.473-1.1.733-1.767.733s-1.295-.26-1.768-.732a2.502 2.502 0 0 1 0-3.535l4.537-4.537a5.452 5.452 0 0 1-.191-.812c-.005-.025-.008-.051-.012-.077A5.503 5.503 0 0 1 5 5.5a5.5 5.5 0 1 1 11 0z"
     id="outline" />
  <path
     class="icon-vs-bg"
     d="M15 5.5a4.5 4.5 0 0 1-4.5 4.5c-.693 0-1.342-.17-1.929-.45l-5.01 5.01c-.293.294-.677.44-1.061.44s-.768-.146-1.061-.439a1.5 1.5 0 0 1 0-2.121l5.01-5.01A4.483 4.483 0 0 1 6 5.5 4.5 4.5 0 0 1 10.5 1c.693 0 1.342.17 1.929.45L9.636 4.243l2.121 2.121 2.793-2.793c.28.587.45 1.236.45 1.929z"
     id="iconBg" />
</svg>
