<?xml version="1.0" encoding="UTF-8" standalone="no"?>
<svg
   width="128"
   height="128"
   viewBox="0 0 16 16"
   version="1.1"
   id="svg1"
   sodipodi:docname="class.svg"
   inkscape:version="1.3.2 (091e20e, 2023-11-25, custom)"
   xmlns:inkscape="http://www.inkscape.org/namespaces/inkscape"
   xmlns:sodipodi="http://sodipodi.sourceforge.net/DTD/sodipodi-0.dtd"
   xmlns="http://www.w3.org/2000/svg"
   xmlns:svg="http://www.w3.org/2000/svg">
  <defs
     id="defs1" />
  <sodipodi:namedview
     id="namedview1"
     pagecolor="#ffffff"
     bordercolor="#000000"
     borderopacity="0.25"
     inkscape:showpageshadow="2"
     inkscape:pageopacity="0.0"
     inkscape:pagecheckerboard="0"
     inkscape:deskcolor="#d1d1d1"
     showgrid="false"
     inkscape:zoom="10.414062"
     inkscape:cx="64"
     inkscape:cy="64"
     inkscape:window-width="3840"
     inkscape:window-height="1529"
     inkscape:window-x="-8"
     inkscape:window-y="-8"
     inkscape:window-maximized="1"
     inkscape:current-layer="svg1" />
  <path
     fill="#0284c7"
     d="M11.34 9.71h.71l2.67-2.67v-.71L13.38 5h-.7l-1.82 1.81h-5V5.56l1.86-1.85V3l-2-2H5L1 5v.71l2 2h.71l1.14-1.15v5.79l.5.5H10v.52l1.33 1.34h.71l2.67-2.67v-.71L13.37 10h-.7l-1.86 1.85h-5v-4H10v.48zm1.69-3.65l.63.63l-2 2l-.63-.63zm0 5l.63.63l-2 2l-.63-.63zM3.35 6.65l-1.29-1.3l3.29-3.29l1.3 1.29z"
     id="path1"
     style="fill:#fd9447;fill-opacity:1" />
</svg>
