<?xml version="1.0" encoding="UTF-8" standalone="no"?>
<svg
   width="128"
   height="128"
   viewBox="0 0 16 16"
   version="1.1"
   id="svg1"
   sodipodi:docname="method-private-static-async.svg"
   inkscape:version="1.4 (86a8ad7, 2024-10-11)"
   xmlns:inkscape="http://www.inkscape.org/namespaces/inkscape"
   xmlns:sodipodi="http://sodipodi.sourceforge.net/DTD/sodipodi-0.dtd"
   xmlns="http://www.w3.org/2000/svg"
   xmlns:svg="http://www.w3.org/2000/svg">
  <defs
     id="defs1" />
  <sodipodi:namedview
     id="namedview1"
     pagecolor="#ffffff"
     bordercolor="#000000"
     borderopacity="0.25"
     inkscape:showpageshadow="2"
     inkscape:pageopacity="0.0"
     inkscape:pagecheckerboard="0"
     inkscape:deskcolor="#d1d1d1"
     inkscape:zoom="10.414062"
     inkscape:cx="64.000003"
     inkscape:cy="64.000003"
     inkscape:window-width="3840"
     inkscape:window-height="1529"
     inkscape:window-x="-8"
     inkscape:window-y="89"
     inkscape:window-maximized="1"
     inkscape:current-layer="svg1" />
  <circle
     style="fill:#fdf847;fill-opacity:1;stroke-width:0.125"
     id="path2"
     cx="2.8444297"
     cy="2.84443"
     r="2.8207054" />
  <path
     fill="#666666"
     d="m13.51 4l-5-3h-1l-5 3l-.49.86v6l.49.85l5 3h1l5-3l.49-.85v-6zm-6 9.56l-4.5-2.7V5.7l4.5 2.45zM3.27 4.7l4.74-2.84l4.74 2.84l-4.74 2.59zm9.74 6.16l-4.5 2.7V8.15l4.5-2.45z"
     id="path1"
     style="fill:#888888;fill-opacity:1" />
  <path
     style="font-size:9.44766px;font-family:'Arial Rounded MT Bold';-inkscape-font-specification:'Arial Rounded MT Bold, ';fill:#ea580c;stroke-width:0.787303"
     d="m 15.990184,13.832254 q 0,0.613544 -0.318305,1.102534 -0.313691,0.48899 -0.922623,0.765777 -0.608931,0.276787 -1.443905,0.276787 -1.001046,0 -1.651495,-0.378275 -0.461312,-0.272174 -0.751938,-0.724259 -0.286013,-0.456699 -0.286013,-0.885719 0,-0.249108 0.170685,-0.424406 0.175298,-0.179912 0.442859,-0.179912 0.216817,0 0.364436,0.138394 0.152233,0.138393 0.258335,0.410567 0.129167,0.322918 0.276787,0.539735 0.152233,0.216816 0.424406,0.359823 0.272174,0.138393 0.715033,0.138393 0.608931,0 0.987207,-0.2814 0.382889,-0.286013 0.382889,-0.71042 0,-0.336757 -0.207591,-0.544347 -0.202977,-0.212204 -0.530508,-0.322919 -0.322918,-0.110714 -0.867266,-0.235268 -0.728872,-0.170686 -1.222475,-0.396728 -0.48899,-0.230656 -0.779617,-0.622771 -0.286013,-0.396728 -0.286013,-0.982593 0,-0.558187 0.304466,-0.9918203 0.304465,-0.4336329 0.881105,-0.6642886 0.576639,-0.2352689 1.356256,-0.2352689 0.62277,0 1.074856,0.1568459 0.456698,0.1522328 0.756551,0.4105673 0.299852,0.2537213 0.438245,0.5351216 0.138394,0.2814 0.138394,0.54896 0,0.244496 -0.175298,0.44286 -0.170686,0.19375 -0.42902,0.19375 -0.235269,0 -0.359823,-0.115327 -0.119941,-0.119941 -0.262948,-0.387502 -0.184524,-0.382889 -0.442859,-0.595092 -0.258334,-0.2168165 -0.830361,-0.2168165 -0.530508,0 -0.858039,0.2352685 -0.322918,0.230656 -0.322918,0.558187 0,0.202977 0.110715,0.350597 0.110714,0.14762 0.304465,0.253722 0.193751,0.106101 0.392115,0.166072 0.198364,0.05997 0.655062,0.175298 0.572027,0.13378 1.033338,0.295239 0.465925,0.161459 0.788843,0.392115 0.327531,0.230656 0.507443,0.585866 0.184524,0.350597 0.184524,0.862653 z"
     id="text1"
     aria-label="S" />
</svg>
