<?xml version="1.0" encoding="UTF-8" standalone="no"?>
<svg
   width="128"
   height="128"
   viewBox="0 0 16 16"
   version="1.1"
   id="svg1"
   sodipodi:docname="property-public-static.svg"
   inkscape:version="1.3.2 (091e20e, 2023-11-25, custom)"
   xmlns:inkscape="http://www.inkscape.org/namespaces/inkscape"
   xmlns:sodipodi="http://sodipodi.sourceforge.net/DTD/sodipodi-0.dtd"
   xmlns="http://www.w3.org/2000/svg"
   xmlns:svg="http://www.w3.org/2000/svg">
  <defs
     id="defs1" />
  <sodipodi:namedview
     id="namedview1"
     pagecolor="#ffffff"
     bordercolor="#000000"
     borderopacity="0.25"
     inkscape:showpageshadow="2"
     inkscape:pageopacity="0.0"
     inkscape:pagecheckerboard="0"
     inkscape:deskcolor="#d1d1d1"
     inkscape:zoom="10.414062"
     inkscape:cx="64.000003"
     inkscape:cy="64.000003"
     inkscape:window-width="3840"
     inkscape:window-height="1529"
     inkscape:window-x="-8"
     inkscape:window-y="-8"
     inkscape:window-maximized="1"
     inkscape:current-layer="svg1" />
  <path
     fill="#7c3aed"
     d="M2.807 14.975a1.75 1.75 0 0 1-1.255-.556a1.68 1.68 0 0 1-.544-1.1A1.72 1.72 0 0 1 1.36 12.1c1.208-1.27 3.587-3.65 5.318-5.345a4.26 4.26 0 0 1 .048-3.078a4.1 4.1 0 0 1 1.665-1.969a4.26 4.26 0 0 1 4.04-.36l.617.268l-2.866 2.951l1.255 1.259l2.944-2.877l.267.619a4.3 4.3 0 0 1 .04 3.311a4.2 4.2 0 0 1-.923 1.392a4.3 4.3 0 0 1-.743.581a4.22 4.22 0 0 1-3.812.446c-1.098 1.112-3.84 3.872-5.32 5.254a1.63 1.63 0 0 1-1.084.423zm7.938-13.047a3.3 3.3 0 0 0-1.849.557q-.321.196-.591.458a3.32 3.32 0 0 0-.657 3.733l.135.297l-.233.227c-1.738 1.697-4.269 4.22-5.485 5.504a.805.805 0 0 0 .132 1.05a.9.9 0 0 0 .298.22q.152.067.319.072a.7.7 0 0 0 .45-.181c1.573-1.469 4.612-4.539 5.504-5.44l.23-.232l.294.135a3.29 3.29 0 0 0 3.225-.254a3.3 3.3 0 0 0 .591-.464a3.28 3.28 0 0 0 .964-2.358q0-.323-.064-.642L11.43 7.125L8.879 4.578l2.515-2.59a3.3 3.3 0 0 0-.65-.06z"
     id="path1" />
  <circle
     style="fill:#ea580c;fill-opacity:1;stroke-width:0.160032"
     id="path2"
     cx="13.582989"
     cy="13.582989"
     r="2.4126031" />
  <path
     fill="#65a30d"
     fill-rule="evenodd"
     d="m 15.476049,3.9259413 a 2.4150688,2.4150688 0 0 0 0.02242,-2.953285 2.4150688,2.4150688 0 0 0 -3.992454,0.217012 v -0.825608 h -0.345006 v 1.207533 l 0.172505,0.172506 h 1.207534 v -0.34501 h -0.755227 a 2.072819,2.072819 0 1 1 -0.04658,1.990707 l -0.306024,0.159394 a 2.4150688,2.4150688 0 0 0 4.042826,0.376751 m -1.159579,-0.33466 0.244267,-0.243922 -0.984658,-0.985003 v -1.308277 h -0.34501 v 1.380039 l 0.05037,0.122134 z"
     clip-rule="evenodd"
     id="path1-1"
     style="stroke-width:0.34501" />
</svg>
