<?xml version="1.0" encoding="UTF-8" standalone="no"?>
<svg
   width="128"
   height="128"
   viewBox="0 0 16 16"
   version="1.1"
   id="svg1"
   sodipodi:docname="property-public-static.svg"
   inkscape:version="1.4 (86a8ad7, 2024-10-11)"
   xmlns:inkscape="http://www.inkscape.org/namespaces/inkscape"
   xmlns:sodipodi="http://sodipodi.sourceforge.net/DTD/sodipodi-0.dtd"
   xmlns="http://www.w3.org/2000/svg"
   xmlns:svg="http://www.w3.org/2000/svg">
  <defs
     id="defs1" />
  <sodipodi:namedview
     id="namedview1"
     pagecolor="#ffffff"
     bordercolor="#000000"
     borderopacity="0.25"
     inkscape:showpageshadow="2"
     inkscape:pageopacity="0.0"
     inkscape:pagecheckerboard="0"
     inkscape:deskcolor="#d1d1d1"
     inkscape:zoom="10.414062"
     inkscape:cx="64.000003"
     inkscape:cy="64.000003"
     inkscape:window-width="3840"
     inkscape:window-height="1529"
     inkscape:window-x="-8"
     inkscape:window-y="89"
     inkscape:window-maximized="1"
     inkscape:current-layer="svg1"
     showgrid="false" />
  <path
     fill="#7c3aed"
     d="M2.807 14.975a1.75 1.75 0 0 1-1.255-.556a1.68 1.68 0 0 1-.544-1.1A1.72 1.72 0 0 1 1.36 12.1c1.208-1.27 3.587-3.65 5.318-5.345a4.26 4.26 0 0 1 .048-3.078a4.1 4.1 0 0 1 1.665-1.969a4.26 4.26 0 0 1 4.04-.36l.617.268l-2.866 2.951l1.255 1.259l2.944-2.877l.267.619a4.3 4.3 0 0 1 .04 3.311a4.2 4.2 0 0 1-.923 1.392a4.3 4.3 0 0 1-.743.581a4.22 4.22 0 0 1-3.812.446c-1.098 1.112-3.84 3.872-5.32 5.254a1.63 1.63 0 0 1-1.084.423zm7.938-13.047a3.3 3.3 0 0 0-1.849.557q-.321.196-.591.458a3.32 3.32 0 0 0-.657 3.733l.135.297l-.233.227c-1.738 1.697-4.269 4.22-5.485 5.504a.805.805 0 0 0 .132 1.05a.9.9 0 0 0 .298.22q.152.067.319.072a.7.7 0 0 0 .45-.181c1.573-1.469 4.612-4.539 5.504-5.44l.23-.232l.294.135a3.29 3.29 0 0 0 3.225-.254a3.3 3.3 0 0 0 .591-.464a3.28 3.28 0 0 0 .964-2.358q0-.323-.064-.642L11.43 7.125L8.879 4.578l2.515-2.59a3.3 3.3 0 0 0-.65-.06z"
     id="path1"
     style="fill:#9762f1;fill-opacity:1" />
  <path
     style="font-size:9.44766px;font-family:'Arial Rounded MT Bold';-inkscape-font-specification:'Arial Rounded MT Bold, ';fill:#ea580c;stroke-width:0.787303"
     d="m 15.987278,13.850445 q 0,0.613544 -0.318305,1.102534 -0.313692,0.488991 -0.922624,0.765778 -0.608931,0.276787 -1.443905,0.276787 -1.001046,0 -1.651495,-0.378276 -0.461312,-0.272174 -0.751938,-0.724259 -0.286013,-0.456698 -0.286013,-0.885718 0,-0.249108 0.170685,-0.424407 0.175299,-0.179911 0.442859,-0.179911 0.216817,0 0.364437,0.138393 0.152232,0.138394 0.258334,0.410567 0.129167,0.322918 0.276787,0.539735 0.152233,0.216816 0.424407,0.359823 0.272173,0.138393 0.715032,0.138393 0.608932,0 0.987207,-0.2814 0.382889,-0.286013 0.382889,-0.710419 0,-0.336758 -0.20759,-0.544348 -0.202978,-0.212203 -0.530509,-0.322918 -0.322918,-0.110715 -0.867265,-0.235269 -0.728873,-0.170685 -1.222476,-0.396728 -0.48899,-0.230656 -0.779617,-0.622771 -0.286013,-0.396727 -0.286013,-0.982593 0,-0.558187 0.304466,-0.99182 0.304466,-0.4336328 0.881105,-0.6642886 0.576639,-0.2352689 1.356256,-0.2352689 0.62277,0 1.074856,0.1568459 0.456698,0.1522328 0.756551,0.4105673 0.299852,0.2537214 0.438246,0.5351213 0.138393,0.2814 0.138393,0.548961 0,0.244495 -0.175298,0.442859 -0.170686,0.193751 -0.42902,0.193751 -0.235269,0 -0.359823,-0.115328 -0.119941,-0.119941 -0.262948,-0.387502 -0.184524,-0.382888 -0.442859,-0.595092 -0.258334,-0.2168161 -0.83036,-0.2168161 -0.530509,0 -0.85804,0.2352691 -0.322918,0.230656 -0.322918,0.558187 0,0.202977 0.110715,0.350596 0.110715,0.14762 0.304465,0.253722 0.193751,0.106102 0.392115,0.166072 0.198364,0.05997 0.655063,0.175298 0.572026,0.133781 1.033337,0.29524 0.465925,0.161459 0.788843,0.392115 0.327531,0.230655 0.507443,0.585865 0.184525,0.350597 0.184525,0.862653 z"
     id="text1"
     aria-label="S" />
</svg>
