<svg xmlns="http://www.w3.org/2000/svg" width="128" height="128" viewBox="0 0 16 16"><path fill="#666666" d="M2.807 14.975a1.75 1.75 0 0 1-1.255-.556a1.68 1.68 0 0 1-.544-1.1A1.72 1.72 0 0 1 1.36 12.1c1.208-1.27 3.587-3.65 5.318-5.345a4.26 4.26 0 0 1 .048-3.078a4.1 4.1 0 0 1 1.665-1.969a4.26 4.26 0 0 1 4.04-.36l.617.268l-2.866 2.951l1.255 1.259l2.944-2.877l.267.619a4.3 4.3 0 0 1 .04 3.311a4.2 4.2 0 0 1-.923 1.392a4.3 4.3 0 0 1-.743.581a4.22 4.22 0 0 1-3.812.446c-1.098 1.112-3.84 3.872-5.32 5.254a1.63 1.63 0 0 1-1.084.423zm7.938-13.047a3.3 3.3 0 0 0-1.849.557q-.321.196-.591.458a3.32 3.32 0 0 0-.657 3.733l.135.297l-.233.227c-1.738 1.697-4.269 4.22-5.485 5.504a.805.805 0 0 0 .132 1.05a.9.9 0 0 0 .298.22q.152.067.319.072a.7.7 0 0 0 .45-.181c1.573-1.469 4.612-4.539 5.504-5.44l.23-.232l.294.135a3.29 3.29 0 0 0 3.225-.254a3.3 3.3 0 0 0 .591-.464a3.28 3.28 0 0 0 .964-2.358q0-.323-.064-.642L11.43 7.125L8.879 4.578l2.515-2.59a3.3 3.3 0 0 0-.65-.06z"/></svg>
