<?xml version="1.0" encoding="UTF-8" standalone="no"?>
<svg
   width="128"
   height="128"
   viewBox="0 0 16 16"
   version="1.1"
   id="svg1"
   sodipodi:docname="property-public-abstract.svg"
   inkscape:version="1.4 (86a8ad7, 2024-10-11)"
   xmlns:inkscape="http://www.inkscape.org/namespaces/inkscape"
   xmlns:sodipodi="http://sodipodi.sourceforge.net/DTD/sodipodi-0.dtd"
   xmlns="http://www.w3.org/2000/svg"
   xmlns:svg="http://www.w3.org/2000/svg">
  <defs
     id="defs1" />
  <sodipodi:namedview
     id="namedview1"
     pagecolor="#ffffff"
     bordercolor="#000000"
     borderopacity="0.25"
     inkscape:showpageshadow="2"
     inkscape:pageopacity="0.0"
     inkscape:pagecheckerboard="0"
     inkscape:deskcolor="#d1d1d1"
     inkscape:zoom="10.414062"
     inkscape:cx="64.000003"
     inkscape:cy="64.000003"
     inkscape:window-width="3840"
     inkscape:window-height="1529"
     inkscape:window-x="-8"
     inkscape:window-y="89"
     inkscape:window-maximized="1"
     inkscape:current-layer="svg1" />
  <path
     fill="#7c3aed"
     d="M2.807 14.975a1.75 1.75 0 0 1-1.255-.556a1.68 1.68 0 0 1-.544-1.1A1.72 1.72 0 0 1 1.36 12.1c1.208-1.27 3.587-3.65 5.318-5.345a4.26 4.26 0 0 1 .048-3.078a4.1 4.1 0 0 1 1.665-1.969a4.26 4.26 0 0 1 4.04-.36l.617.268l-2.866 2.951l1.255 1.259l2.944-2.877l.267.619a4.3 4.3 0 0 1 .04 3.311a4.2 4.2 0 0 1-.923 1.392a4.3 4.3 0 0 1-.743.581a4.22 4.22 0 0 1-3.812.446c-1.098 1.112-3.84 3.872-5.32 5.254a1.63 1.63 0 0 1-1.084.423zm7.938-13.047a3.3 3.3 0 0 0-1.849.557q-.321.196-.591.458a3.32 3.32 0 0 0-.657 3.733l.135.297l-.233.227c-1.738 1.697-4.269 4.22-5.485 5.504a.805.805 0 0 0 .132 1.05a.9.9 0 0 0 .298.22q.152.067.319.072a.7.7 0 0 0 .45-.181c1.573-1.469 4.612-4.539 5.504-5.44l.23-.232l.294.135a3.29 3.29 0 0 0 3.225-.254a3.3 3.3 0 0 0 .591-.464a3.28 3.28 0 0 0 .964-2.358q0-.323-.064-.642L11.43 7.125L8.879 4.578l2.515-2.59a3.3 3.3 0 0 0-.65-.06z"
     id="path1"
     style="fill:#9762f1;fill-opacity:1" />
  <path
     style="font-size:9.44766px;font-family:'Arial Rounded MT Bold';-inkscape-font-specification:'Arial Rounded MT Bold, ';fill:#ea580c;stroke-width:0.787303"
     d="m 14.523127,15.104783 -0.322919,-0.848814 h -2.749416 l -0.322918,0.867266 q -0.189138,0.507443 -0.322918,0.687354 -0.133781,0.175299 -0.438246,0.175299 -0.258335,0 -0.4566989,-0.189138 -0.198364,-0.189138 -0.198364,-0.42902 0,-0.138393 0.046131,-0.286013 0.046131,-0.14762 0.1522328,-0.410567 l 1.7299179,-4.391686 q 0.07381,-0.189138 0.175299,-0.4520856 0.106101,-0.2675606 0.221429,-0.442859 0.119941,-0.1752984 0.309079,-0.2814001 0.193751,-0.1107147 0.475151,-0.1107147 0.286013,0 0.475151,0.1107147 0.193751,0.1061017 0.309079,0.276787 0.119941,0.1706852 0.198364,0.3690492 0.08304,0.1937508 0.20759,0.5212825 l 1.766823,4.364007 q 0.20759,0.498216 0.20759,0.724259 0,0.235269 -0.198364,0.433633 -0.193751,0.193751 -0.470538,0.193751 -0.161459,0 -0.276787,-0.05997 -0.115327,-0.05536 -0.19375,-0.152233 -0.07842,-0.101488 -0.170686,-0.304465 -0.08765,-0.207591 -0.152232,-0.364436 z m -2.712512,-1.877538 h 2.020544 L 12.811661,10.43631 Z"
     id="text1"
     aria-label="A" />
</svg>
