<?xml version="1.0" encoding="UTF-8" standalone="no"?>
<svg
   width="128"
   height="128"
   viewBox="0 0 16 16"
   version="1.1"
   id="svg1"
   sodipodi:docname="type-exported.svg"
   inkscape:version="1.3.2 (091e20e, 2023-11-25, custom)"
   xmlns:inkscape="http://www.inkscape.org/namespaces/inkscape"
   xmlns:sodipodi="http://sodipodi.sourceforge.net/DTD/sodipodi-0.dtd"
   xmlns="http://www.w3.org/2000/svg"
   xmlns:svg="http://www.w3.org/2000/svg">
  <defs
     id="defs1" />
  <sodipodi:namedview
     id="namedview1"
     pagecolor="#ffffff"
     bordercolor="#000000"
     borderopacity="0.25"
     inkscape:showpageshadow="2"
     inkscape:pageopacity="0.0"
     inkscape:pagecheckerboard="0"
     inkscape:deskcolor="#d1d1d1"
     showgrid="false"
     inkscape:zoom="10.414062"
     inkscape:cx="64"
     inkscape:cy="64"
     inkscape:window-width="3840"
     inkscape:window-height="1529"
     inkscape:window-x="-8"
     inkscape:window-y="-8"
     inkscape:window-maximized="1"
     inkscape:current-layer="svg1" />
  <path
     fill="#7c3aed"
     d="M13.5 11h-1.729L8.438 6H9.5l.5-.5v-4L9.5 1h-4l-.5.5v4l.5.5h1.062l-3.333 5H1.5l-.5.5v3l.5.5h3l.5-.5v-3l-.5-.5h-.068L7.5 6.4l3.068 4.6H10.5l-.5.5v3l.5.5h3l.5-.5v-3zM6 5V2h3v3zm-2 7v2H2v-2zm9 2h-2v-2h2z"
     id="path1"
     style="fill:#07c288;fill-opacity:1" />
</svg>
